# xmcd CD database file generated by OrangeCD 5.2
#
# Track frame offsets:
#	150
#	9717
#	21017
#	35455
#	45467
#	58010
#	70210
#	79820
#	89920
#	101455
#	112135
#	125360
#	138235
#	151870
#
# Disc length: 2167 seconds
#
# Revision: 0
# Processed by: cddbd v1.5.1PL0 Copyright (c) Steve Scherf et al.
# Submitted via: OrangeCD 5.2
#
DISCID=b708750e
DTITLE=Johnny and The Roccos - Knee Deep In The Blues
DYEAR=1988
DGENRE=Blues
TTITLE0=Open Up That Door
TTITLE1=The Worryin' Kind
TTITLE2=Geronimo's Rock
TTITLE3=My Next Door Neighbour
TTITLE4=Knee Deep In The Blues
TTITLE5=Hoodoo Woman
TTITLE6=Shake Shack A Dooby
TTITLE7=Cutie Named Judie
TTITLE8=Crazy Me
TTITLE9=Talkin' Off The Wall
TTITLE10=Milk'em In The Morning Blues
TTITLE11=Ride And Roll
TTITLE12=Walkin' Out On My Blues
TTITLE13=Shakin' At The North Pole
EXTD=
EXTT0=
EXTT1=
EXTT2=
EXTT3=
EXTT4=
EXTT5=
EXTT6=
EXTT7=
EXTT8=
EXTT9=
EXTT10=
EXTT11=
EXTT12=
EXTT13=
PLAYORDER=
